<svg width="55" height="55" viewBox="0 0 55 55" fill="none" xmlns="http://www.w3.org/2000/svg">
<g id="Group 294">
<g id="Rectangle 5">
<g filter="url(#filter0_i_6_12)">
<path d="M0 10C0 4.47715 4.47715 0 10 0H27.5C42.6878 0 55 12.3122 55 27.5C55 42.6878 42.6878 55 27.5 55H10C4.47715 55 0 50.5228 0 45V10Z" fill="#606C38"/>
</g>
<path d="M0.3 10C0.3 4.64284 4.64284 0.3 10 0.3H27.5C42.5221 0.3 54.7 12.4779 54.7 27.5C54.7 42.5221 42.5221 54.7 27.5 54.7H10C4.64284 54.7 0.3 50.3572 0.3 45V10Z" stroke="url(#paint0_linear_6_12)" stroke-opacity="0.65" stroke-width="0.6"/>
</g>
<path id="Vector" d="M38.0282 37.9639C38.6846 37.3075 38.6846 36.2431 38.0282 35.5867L32.9505 30.5089C34.129 28.8881 34.8258 26.8946 34.8258 24.7415C34.8258 19.3234 30.4177 14.9153 24.9986 14.9153C19.5806 14.9153 15.1724 19.3234 15.1724 24.7415C15.1724 30.1605 19.5806 34.5677 24.9986 34.5677C27.0527 34.5677 28.9604 33.9345 30.5399 32.8529L35.6509 37.9639C36.3074 38.6204 37.3717 38.6204 38.0282 37.9639ZM18.0546 24.7415C18.0546 20.912 21.1701 17.7965 24.9996 17.7965C28.8291 17.7965 31.9446 20.912 31.9446 24.7415C31.9446 28.571 28.8291 31.6865 24.9996 31.6865C21.1691 31.6865 18.0546 28.571 18.0546 24.7415Z" fill="#FEFAE0"/>
</g>
<defs>
<filter id="filter0_i_6_12" x="0" y="0" width="55" height="59" filterUnits="userSpaceOnUse" color-interpolation-filters="sRGB">
<feFlood flood-opacity="0" result="BackgroundImageFix"/>
<feBlend mode="normal" in="SourceGraphic" in2="BackgroundImageFix" result="shape"/>
<feColorMatrix in="SourceAlpha" type="matrix" values="0 0 0 0 0 0 0 0 0 0 0 0 0 0 0 0 0 0 127 0" result="hardAlpha"/>
<feOffset dy="4"/>
<feGaussianBlur stdDeviation="50"/>
<feComposite in2="hardAlpha" operator="arithmetic" k2="-1" k3="1"/>
<feColorMatrix type="matrix" values="0 0 0 0 0 0 0 0 0 0 0 0 0 0 0 0 0 0 0.25 0"/>
<feBlend mode="normal" in2="shape" result="effect1_innerShadow_6_12"/>
</filter>
<linearGradient id="paint0_linear_6_12" x1="0.426879" y1="0.438996" x2="65.541" y2="33.3795" gradientUnits="userSpaceOnUse">
<stop stop-color="white"/>
<stop offset="1" stop-color="white" stop-opacity="0"/>
</linearGradient>
</defs>
</svg>
